<?xml version="1.0" standalone="no"?><!-- Generator: Adobe Fireworks CS6, Export SVG Extension by Aaron Beall (http://fireworks.abeall.com) . Version: 0.6.1  --><!DOCTYPE svg PUBLIC "-//W3C//DTD SVG 1.1//EN" "http://www.w3.org/Graphics/SVG/1.1/DTD/svg11.dtd"><svg id="Untitled-Page%201" viewBox="0 0 46 20" style="background-color:#ffffff00" version="1.1"	xmlns="http://www.w3.org/2000/svg" xmlns:xlink="http://www.w3.org/1999/xlink" xml:space="preserve"	x="0px" y="0px" width="46px" height="20px">	<defs>		<linearGradient id="gradient1" x1="50%" y1="0%" x2="50%" y2="100%">			<stop stop-color="#4b68b9" stop-opacity="1" offset="0%"/>			<stop stop-color="#3c56a1" stop-opacity="1" offset="100%"/>		</linearGradient>	</defs>	<path id="Like-BG" d="M 3 0 L 43 0 C 44.6569 0 46 1.3431 46 3 L 46 17 C 46 18.6569 44.6569 20 43 20 L 3 20 C 1.3431 20 0 18.6569 0 17 L 0 3 C 0 1.3431 1.3431 0 3 0 Z" fill="url(#gradient1)"/>	<path id="Slice%201%20+%20Like" opacity="0.302" d="M 39.4966 9.4017 L 37.0662 9.4017 C 37.0732 9.2916 37.096 9.1669 37.1346 9.0275 C 37.1732 8.8881 37.2397 8.7561 37.3344 8.6314 C 37.4291 8.5067 37.5554 8.4021 37.7133 8.3177 C 37.871 8.2334 38.0692 8.1912 38.3077 8.1912 C 38.6724 8.1912 38.9442 8.2939 39.1231 8.4993 C 39.3019 8.7047 39.4265 9.0055 39.4966 9.4017 L 39.4966 9.4017 ZM 37.0662 10.392 L 40.9907 10.392 C 41.0187 9.9518 40.9836 9.53 40.8854 9.1265 C 40.7872 8.7231 40.6276 8.3636 40.4067 8.0482 C 40.1857 7.7327 39.9034 7.4814 39.5598 7.2944 C 39.216 7.1073 38.8127 7.0137 38.3498 7.0137 C 37.9359 7.0137 37.5589 7.0908 37.2188 7.2448 C 36.8785 7.3989 36.5857 7.6098 36.3402 7.8776 C 36.0947 8.1454 35.9053 8.4626 35.772 8.8294 C 35.6388 9.1962 35.5721 9.5924 35.5721 10.0179 C 35.5721 10.458 35.637 10.8615 35.7668 11.2283 C 35.8965 11.5952 36.0807 11.9106 36.3192 12.1747 C 36.5577 12.4388 36.8487 12.6423 37.1924 12.7854 C 37.5361 12.9285 37.9219 13 38.3498 13 C 38.967 13 39.4931 12.8533 39.928 12.5599 C 40.3629 12.2664 40.6855 11.7785 40.896 11.0963 L 39.5808 11.0963 C 39.5317 11.2724 39.3984 11.4393 39.181 11.597 C 38.9635 11.7547 38.704 11.8336 38.4023 11.8336 C 37.9815 11.8336 37.6589 11.7199 37.4344 11.4924 C 37.21 11.265 37.0872 10.8982 37.0662 10.392 L 37.0662 10.392 ZM 29.9326 5 L 29.9326 12.8569 L 31.4267 12.8569 L 31.4267 10.8982 L 32.0054 10.315 L 33.4994 12.8569 L 35.3091 12.8569 L 33.0259 9.2586 L 35.0776 7.1678 L 33.3101 7.1678 L 31.4267 9.2146 L 31.4267 5 L 29.9326 5 L 29.9326 5 ZM 27.1235 7.1678 L 27.1235 12.8569 L 28.6174 12.8569 L 28.6174 7.1678 L 27.1235 7.1678 L 27.1235 7.1678 ZM 28.6174 6.2875 L 28.6174 5 L 27.1235 5 L 27.1235 6.2875 L 28.6174 6.2875 L 28.6174 6.2875 ZM 21 5 L 21 12.8569 L 26.3133 12.8569 L 26.3133 11.4044 L 22.6519 11.4044 L 22.6519 5 L 21 5 L 21 5 Z" fill="#000000"/>	<path id="Slice%201%20+%20Like2" d="M 39.4966 10.4017 L 37.0662 10.4017 C 37.0732 10.2916 37.096 10.1669 37.1346 10.0275 C 37.1732 9.8881 37.2397 9.7561 37.3344 9.6314 C 37.4291 9.5067 37.5554 9.4021 37.7133 9.3177 C 37.871 9.2334 38.0692 9.1912 38.3077 9.1912 C 38.6724 9.1912 38.9442 9.2939 39.1231 9.4993 C 39.3019 9.7047 39.4265 10.0055 39.4966 10.4017 L 39.4966 10.4017 ZM 37.0662 11.392 L 40.9907 11.392 C 41.0187 10.9518 40.9836 10.53 40.8854 10.1265 C 40.7872 9.7231 40.6276 9.3636 40.4067 9.0482 C 40.1857 8.7327 39.9034 8.4814 39.5598 8.2944 C 39.216 8.1073 38.8127 8.0137 38.3498 8.0137 C 37.9359 8.0137 37.5589 8.0908 37.2188 8.2448 C 36.8785 8.3989 36.5857 8.6098 36.3402 8.8776 C 36.0947 9.1454 35.9053 9.4626 35.772 9.8294 C 35.6388 10.1962 35.5721 10.5924 35.5721 11.0179 C 35.5721 11.458 35.637 11.8615 35.7668 12.2283 C 35.8965 12.5952 36.0807 12.9106 36.3192 13.1747 C 36.5577 13.4388 36.8487 13.6423 37.1924 13.7854 C 37.5361 13.9285 37.9219 14 38.3498 14 C 38.967 14 39.4931 13.8533 39.928 13.5599 C 40.3629 13.2664 40.6855 12.7785 40.896 12.0963 L 39.5808 12.0963 C 39.5317 12.2724 39.3984 12.4393 39.181 12.597 C 38.9635 12.7547 38.704 12.8336 38.4023 12.8336 C 37.9815 12.8336 37.6589 12.7199 37.4344 12.4924 C 37.21 12.265 37.0872 11.8982 37.0662 11.392 L 37.0662 11.392 ZM 29.9326 6 L 29.9326 13.8569 L 31.4267 13.8569 L 31.4267 11.8982 L 32.0054 11.315 L 33.4994 13.8569 L 35.3091 13.8569 L 33.0259 10.2586 L 35.0776 8.1678 L 33.3101 8.1678 L 31.4267 10.2146 L 31.4267 6 L 29.9326 6 L 29.9326 6 ZM 27.1235 8.1678 L 27.1235 13.8569 L 28.6174 13.8569 L 28.6174 8.1678 L 27.1235 8.1678 L 27.1235 8.1678 ZM 28.6174 7.2875 L 28.6174 6 L 27.1235 6 L 27.1235 7.2875 L 28.6174 7.2875 L 28.6174 7.2875 ZM 21 6 L 21 13.8569 L 26.3133 13.8569 L 26.3133 12.4044 L 22.6519 12.4044 L 22.6519 6 L 21 6 L 21 6 Z" fill="#ffffff"/>	<path d="M 5.1152 4 C 4.4993 4 4 4.4993 4 5.1152 L 4 14.8848 C 4 15.5007 4.4993 16 5.1152 16 L 10 16 L 10 12 L 8 12 L 8 10 L 10 10 L 10 8.2446 C 10 6.9828 11.0227 6 12.2844 6 L 13.7581 6 L 14 6.0127 L 14 8 L 12.4337 8 C 12.0826 8 12 8.2811 12 8.6371 L 12 10 L 14 10 L 14 12 L 12 12 L 12 16 L 14.7253 16 C 15.3412 16 16 15.5007 16 14.8848 L 16 5.1152 C 16 4.4993 15.5007 4 14.8848 4 L 5.1152 4 Z" fill="#ffffff"/></svg>