<?xml version="1.0" encoding="UTF-8" standalone="no"?>
<svg width="51px" height="20px" viewBox="0 0 51 20" version="1.1" xmlns="http://www.w3.org/2000/svg" xmlns:xlink="http://www.w3.org/1999/xlink" xmlns:sketch="http://www.bohemiancoding.com/sketch/ns">
    <!-- Generator: Sketch 3.0.3 (7891) - http://www.bohemiancoding.com/sketch -->
    <title>Group</title>
    <desc>Created with Sketch.</desc>
    <defs>
        <linearGradient x1="50%" y1="0%" x2="50%" y2="100%" id="linearGradient-1">
            <stop stop-color="#FEFEFE" offset="0%"></stop>
            <stop stop-color="#DFDFDF" offset="100%"></stop>
        </linearGradient>
    </defs>
    <g id="Page-1" stroke="none" stroke-width="1" fill="none" fill-rule="evenodd" sketch:type="MSPage">
        <g id="Group" sketch:type="MSLayerGroup">
            <rect id="Rectangle-53-copy-2" fill="#CCCCCC" sketch:type="MSShapeGroup" x="0" y="0" width="50.3427734" height="20" rx="3"></rect>
            <rect id="Rectangle-53-copy" fill="url(#linearGradient-1)" sketch:type="MSShapeGroup" x="0.898978097" y="1" width="48.5448172" height="18" rx="2"></rect>
            <path d="M11.5472615,3.57404769 C7.90947972,3.57404769 4.95929293,6.52383001 4.95929293,10.1628252 C4.95929293,13.0737786 6.8469433,15.5430534 9.46506217,16.4142766 C9.79470328,16.4749468 9.91483016,16.2714996 9.91483016,16.0967695 C9.91483016,15.940645 9.90916762,15.5260657 9.90593188,14.9763942 C8.07328911,15.3743904 7.68661807,14.093037 7.68661807,14.093037 C7.38690756,13.3318289 6.95493615,13.1291906 6.95493615,13.1291906 C6.35672854,12.7206784 7.00023652,12.7287677 7.00023652,12.7287677 C7.66154107,12.7752815 8.00938322,13.4078688 8.00938322,13.4078688 C8.59707467,14.4145887 9.55161824,14.1237765 9.92696419,13.9551135 C9.9868254,13.5296136 10.1571063,13.2392058 10.3451837,13.0745875 C8.88222434,12.9083513 7.344034,12.3429056 7.344034,9.81821874 C7.344034,9.09907532 7.60087093,8.51057494 8.02232619,8.05029079 C7.95437563,7.88365013 7.72827823,7.2134473 8.08704101,6.3066309 C8.08704101,6.3066309 8.63994824,6.12947408 9.89865146,6.98209182 C10.4240549,6.83567454 10.9878827,6.76287037 11.5480704,6.7600391 C12.1078536,6.76287037 12.671277,6.83567454 13.1974893,6.98209182 C14.4553836,6.12947408 15.0074819,6.3066309 15.0074819,6.3066309 C15.3670536,7.2134473 15.1409562,7.88365013 15.0734101,8.05029079 C15.4956743,8.51057494 15.7504889,9.09907532 15.7504889,9.81821874 C15.7504889,12.3493771 14.2098718,12.906329 12.7424633,13.0693294 C12.9786724,13.2727767 13.1894,13.6748175 13.1894,14.2896082 C13.1894,15.1701342 13.1813106,15.8807838 13.1813106,16.0967695 C13.1813106,16.2731174 13.3002241,16.4781825 13.6343144,16.4138722 C16.2504109,15.5406266 18.1364434,13.0729696 18.1364434,10.1628252 C18.1364434,6.52383001 15.1862566,3.57404769 11.5472615,3.57404769" id="Fill-3" fill="#161614" sketch:type="MSShapeGroup"></path>
            <path d="M23.112,12.428 L21.288,12.428 C21.28,12.9560026 21.375999,13.4119981 21.576,13.796 C21.776001,14.1800019 22.0459983,14.4959988 22.386,14.744 C22.7260017,14.9920012 23.1179978,15.1739994 23.562,15.29 C24.0060022,15.4060006 24.4639976,15.464 24.936,15.464 C25.5200029,15.464 26.0339978,15.3960007 26.478,15.26 C26.9220022,15.1239993 27.2939985,14.9340012 27.594,14.69 C27.8940015,14.4459988 28.1199992,14.1560017 28.272,13.82 C28.4240008,13.4839983 28.5,13.120002 28.5,12.728 C28.5,12.2479976 28.398001,11.8540015 28.194,11.546 C27.989999,11.2379985 27.7480014,10.9920009 27.468,10.808 C27.1879986,10.6239991 26.9060014,10.4900004 26.622,10.406 C26.3379986,10.3219996 26.1160008,10.2640002 25.956,10.232 C25.4199973,10.0959993 24.9860017,9.98400044 24.654,9.896 C24.3219983,9.80799956 24.0620009,9.72000044 23.874,9.632 C23.6859991,9.54399956 23.5600003,9.44800052 23.496,9.344 C23.4319997,9.23999948 23.4,9.10400084 23.4,8.936 C23.4,8.75199908 23.4399996,8.6000006 23.52,8.48 C23.6000004,8.3599994 23.7019994,8.2600004 23.826,8.18 C23.9500006,8.0999996 24.0879992,8.04400016 24.24,8.012 C24.3920008,7.97999984 24.5439992,7.964 24.696,7.964 C24.9280012,7.964 25.141999,7.9839998 25.338,8.024 C25.534001,8.0640002 25.7079992,8.13199952 25.86,8.228 C26.0120008,8.32400048 26.1339995,8.45599916 26.226,8.624 C26.3180005,8.79200084 26.3719999,9.00399872 26.388,9.26 L28.212,9.26 C28.212,8.76399752 28.1180009,8.34200174 27.93,7.994 C27.7419991,7.64599826 27.4880016,7.36000112 27.168,7.136 C26.8479984,6.91199888 26.4820021,6.7500005 26.07,6.65 C25.6579979,6.5499995 25.2280022,6.5 24.78,6.5 C24.3959981,6.5 24.0120019,6.55199948 23.628,6.656 C23.2439981,6.76000052 22.9000015,6.91999892 22.596,7.136 C22.2919985,7.35200108 22.0460009,7.62199838 21.858,7.946 C21.6699991,8.27000162 21.576,8.6519978 21.576,9.092 C21.576,9.48400196 21.6499993,9.81799862 21.798,10.094 C21.9460007,10.3700014 22.1399988,10.5999991 22.38,10.784 C22.6200012,10.9680009 22.8919985,11.1179994 23.196,11.234 C23.5000015,11.3500006 23.8119984,11.4479996 24.132,11.528 C24.4440016,11.6160004 24.7519985,11.6959996 25.056,11.768 C25.3600015,11.8400004 25.6319988,11.9239995 25.872,12.02 C26.1120012,12.1160005 26.3059993,12.2359993 26.454,12.38 C26.6020007,12.5240007 26.676,12.7119988 26.676,12.944 C26.676,13.1600011 26.6200006,13.3379993 26.508,13.478 C26.3959994,13.6180007 26.2560008,13.7279996 26.088,13.808 C25.9199992,13.8880004 25.740001,13.9419999 25.548,13.97 C25.355999,13.9980001 25.1760008,14.012 25.008,14.012 C24.7599988,14.012 24.5200012,13.9820003 24.288,13.922 C24.0559988,13.8619997 23.8540009,13.7700006 23.682,13.646 C23.5099991,13.5219994 23.3720005,13.360001 23.268,13.16 C23.1639995,12.959999 23.112,12.7160014 23.112,12.428 Z M31.596,9.068 L31.596,7.208 L29.892,7.208 L29.892,9.068 L28.86,9.068 L28.86,10.208 L29.892,10.208 L29.892,13.868 C29.892,14.1800016 29.9439995,14.431999 30.048,14.624 C30.1520005,14.816001 30.2939991,14.9639995 30.474,15.068 C30.6540009,15.1720005 30.8619988,15.2419998 31.098,15.278 C31.3340012,15.3140002 31.5839987,15.332 31.848,15.332 C32.0160008,15.332 32.1879991,15.328 32.364,15.32 C32.5400009,15.312 32.6999993,15.2960001 32.844,15.272 L32.844,13.952 C32.7639996,13.9680001 32.6800004,13.98 32.592,13.988 C32.5039996,13.996 32.4120005,14 32.316,14 C32.0279986,14 31.8360005,13.9520005 31.74,13.856 C31.6439995,13.7599995 31.596,13.5680014 31.596,13.28 L31.596,10.208 L32.844,10.208 L32.844,9.068 L31.596,9.068 Z M33.588,10.976 L35.292,10.976 C35.3240002,10.6399983 35.435999,10.4000007 35.628,10.256 C35.820001,10.1119993 36.0839983,10.04 36.42,10.04 C36.5720008,10.04 36.7139993,10.0499999 36.846,10.07 C36.9780007,10.0900001 37.0939995,10.1299997 37.194,10.19 C37.2940005,10.2500003 37.3739997,10.3339995 37.434,10.442 C37.4940003,10.5500005 37.524,10.6959991 37.524,10.88 C37.532,11.0560009 37.4800006,11.1899995 37.368,11.282 C37.2559994,11.3740005 37.104001,11.4439998 36.912,11.492 C36.719999,11.5400002 36.5000012,11.5759999 36.252,11.6 C36.0039988,11.6240001 35.7520013,11.6559998 35.496,11.696 C35.2399987,11.7360002 34.9860013,11.7899997 34.734,11.858 C34.4819987,11.9260003 34.258001,12.0279993 34.062,12.164 C33.865999,12.3000007 33.7060006,12.4819989 33.582,12.71 C33.4579994,12.9380011 33.396,13.2279982 33.396,13.58 C33.396,13.9000016 33.4499995,14.1759988 33.558,14.408 C33.6660005,14.6400012 33.815999,14.8319992 34.008,14.984 C34.200001,15.1360008 34.4239987,15.2479996 34.68,15.32 C34.9360013,15.3920004 35.2119985,15.428 35.508,15.428 C35.8920019,15.428 36.2679982,15.3720006 36.636,15.26 C37.0040018,15.1479994 37.3239986,14.9520014 37.596,14.672 C37.604,14.7760005 37.6179999,14.8779995 37.638,14.978 C37.6580001,15.0780005 37.6839998,15.1759995 37.716,15.272 L39.444,15.272 C39.3639996,15.1439994 39.3080002,14.9520013 39.276,14.696 C39.2439998,14.4399987 39.228,14.1720014 39.228,13.892 L39.228,10.664 C39.228,10.2879981 39.1440008,9.98600114 38.976,9.758 C38.8079992,9.52999886 38.5920013,9.35200064 38.328,9.224 C38.0639987,9.09599936 37.7720016,9.01000022 37.452,8.966 C37.1319984,8.92199978 36.8160016,8.9 36.504,8.9 C36.1599983,8.9 35.8180017,8.93399966 35.478,9.002 C35.1379983,9.07000034 34.8320014,9.1839992 34.56,9.344 C34.2879986,9.5040008 34.0640009,9.71599868 33.888,9.98 C33.7119991,10.2440013 33.6120001,10.575998 33.588,10.976 Z M37.524,12.236 L37.524,12.872 C37.524,12.9680005 37.5140001,13.0959992 37.494,13.256 C37.4739999,13.4160008 37.4200004,13.5739992 37.332,13.73 C37.2439996,13.8860008 37.1080009,14.0199994 36.924,14.132 C36.7399991,14.2440006 36.4800017,14.3 36.144,14.3 C36.0079993,14.3 35.8760006,14.2880001 35.748,14.264 C35.6199994,14.2399999 35.5080005,14.1980003 35.412,14.138 C35.3159995,14.0779997 35.2400003,13.9960005 35.184,13.892 C35.1279997,13.7879995 35.1,13.6600008 35.1,13.508 C35.1,13.3479992 35.1279997,13.2160005 35.184,13.112 C35.2400003,13.0079995 35.3139995,12.9220003 35.406,12.854 C35.4980005,12.7859997 35.6059994,12.7320002 35.73,12.692 C35.8540006,12.6519998 35.9799994,12.6200001 36.108,12.596 C36.2440007,12.5719999 36.3799993,12.5520001 36.516,12.536 C36.6520007,12.5199999 36.7819994,12.5000001 36.906,12.476 C37.0300006,12.4519999 37.1459995,12.4220002 37.254,12.386 C37.3620005,12.3499998 37.4519996,12.3000003 37.524,12.236 Z M40.548,9.068 L40.548,15.272 L42.252,15.272 L42.252,12.476 C42.252,12.1959986 42.2799997,11.9360012 42.336,11.696 C42.3920003,11.4559988 42.4859993,11.2460009 42.618,11.066 C42.7500007,10.8859991 42.9239989,10.7440005 43.14,10.64 C43.3560011,10.5359995 43.6199984,10.484 43.932,10.484 C44.0360005,10.484 44.1439994,10.4899999 44.256,10.502 C44.3680006,10.5140001 44.4639996,10.5279999 44.544,10.544 L44.544,8.96 C44.4079993,8.9199998 44.2840006,8.9 44.172,8.9 C43.9559989,8.9 43.748001,8.93199968 43.548,8.996 C43.347999,9.06000032 43.1600009,9.14999942 42.984,9.266 C42.8079991,9.38200058 42.6520007,9.52199918 42.516,9.686 C42.3799993,9.85000082 42.2720004,10.027999 42.192,10.22 L42.168,10.22 L42.168,9.068 L40.548,9.068 Z" id="Star-2" fill="#FFFFFF" sketch:type="MSShapeGroup"></path>
            <path d="M23.112,11.428 L21.288,11.428 C21.28,11.9560026 21.375999,12.4119981 21.576,12.796 C21.776001,13.1800019 22.0459983,13.4959988 22.386,13.744 C22.7260017,13.9920012 23.1179978,14.1739994 23.562,14.29 C24.0060022,14.4060006 24.4639976,14.464 24.936,14.464 C25.5200029,14.464 26.0339978,14.3960007 26.478,14.26 C26.9220022,14.1239993 27.2939985,13.9340012 27.594,13.69 C27.8940015,13.4459988 28.1199992,13.1560017 28.272,12.82 C28.4240008,12.4839983 28.5,12.120002 28.5,11.728 C28.5,11.2479976 28.398001,10.8540015 28.194,10.546 C27.989999,10.2379985 27.7480014,9.99200092 27.468,9.808 C27.1879986,9.62399908 26.9060014,9.49000042 26.622,9.406 C26.3379986,9.32199958 26.1160008,9.26400016 25.956,9.232 C25.4199973,9.09599932 24.9860017,8.98400044 24.654,8.896 C24.3219983,8.80799956 24.0620009,8.72000044 23.874,8.632 C23.6859991,8.54399956 23.5600003,8.44800052 23.496,8.344 C23.4319997,8.23999948 23.4,8.10400084 23.4,7.936 C23.4,7.75199908 23.4399996,7.6000006 23.52,7.48 C23.6000004,7.3599994 23.7019994,7.2600004 23.826,7.18 C23.9500006,7.0999996 24.0879992,7.04400016 24.24,7.012 C24.3920008,6.97999984 24.5439992,6.964 24.696,6.964 C24.9280012,6.964 25.141999,6.9839998 25.338,7.024 C25.534001,7.0640002 25.7079992,7.13199952 25.86,7.228 C26.0120008,7.32400048 26.1339995,7.45599916 26.226,7.624 C26.3180005,7.79200084 26.3719999,8.00399872 26.388,8.26 L28.212,8.26 C28.212,7.76399752 28.1180009,7.34200174 27.93,6.994 C27.7419991,6.64599826 27.4880016,6.36000112 27.168,6.136 C26.8479984,5.91199888 26.4820021,5.7500005 26.07,5.65 C25.6579979,5.5499995 25.2280022,5.5 24.78,5.5 C24.3959981,5.5 24.0120019,5.55199948 23.628,5.656 C23.2439981,5.76000052 22.9000015,5.91999892 22.596,6.136 C22.2919985,6.35200108 22.0460009,6.62199838 21.858,6.946 C21.6699991,7.27000162 21.576,7.6519978 21.576,8.092 C21.576,8.48400196 21.6499993,8.81799862 21.798,9.094 C21.9460007,9.37000138 22.1399988,9.59999908 22.38,9.784 C22.6200012,9.96800092 22.8919985,10.1179994 23.196,10.234 C23.5000015,10.3500006 23.8119984,10.4479996 24.132,10.528 C24.4440016,10.6160004 24.7519985,10.6959996 25.056,10.768 C25.3600015,10.8400004 25.6319988,10.9239995 25.872,11.02 C26.1120012,11.1160005 26.3059993,11.2359993 26.454,11.38 C26.6020007,11.5240007 26.676,11.7119988 26.676,11.944 C26.676,12.1600011 26.6200006,12.3379993 26.508,12.478 C26.3959994,12.6180007 26.2560008,12.7279996 26.088,12.808 C25.9199992,12.8880004 25.740001,12.9419999 25.548,12.97 C25.355999,12.9980001 25.1760008,13.012 25.008,13.012 C24.7599988,13.012 24.5200012,12.9820003 24.288,12.922 C24.0559988,12.8619997 23.8540009,12.7700006 23.682,12.646 C23.5099991,12.5219994 23.3720005,12.360001 23.268,12.16 C23.1639995,11.959999 23.112,11.7160014 23.112,11.428 Z M31.596,8.068 L31.596,6.208 L29.892,6.208 L29.892,8.068 L28.86,8.068 L28.86,9.208 L29.892,9.208 L29.892,12.868 C29.892,13.1800016 29.9439995,13.431999 30.048,13.624 C30.1520005,13.816001 30.2939991,13.9639995 30.474,14.068 C30.6540009,14.1720005 30.8619988,14.2419998 31.098,14.278 C31.3340012,14.3140002 31.5839987,14.332 31.848,14.332 C32.0160008,14.332 32.1879991,14.328 32.364,14.32 C32.5400009,14.312 32.6999993,14.2960001 32.844,14.272 L32.844,12.952 C32.7639996,12.9680001 32.6800004,12.98 32.592,12.988 C32.5039996,12.996 32.4120005,13 32.316,13 C32.0279986,13 31.8360005,12.9520005 31.74,12.856 C31.6439995,12.7599995 31.596,12.5680014 31.596,12.28 L31.596,9.208 L32.844,9.208 L32.844,8.068 L31.596,8.068 Z M33.588,9.976 L35.292,9.976 C35.3240002,9.63999832 35.435999,9.40000072 35.628,9.256 C35.820001,9.11199928 36.0839983,9.04 36.42,9.04 C36.5720008,9.04 36.7139993,9.0499999 36.846,9.07 C36.9780007,9.0900001 37.0939995,9.1299997 37.194,9.19 C37.2940005,9.2500003 37.3739997,9.33399946 37.434,9.442 C37.4940003,9.55000054 37.524,9.69599908 37.524,9.88 C37.532,10.0560009 37.4800006,10.1899995 37.368,10.282 C37.2559994,10.3740005 37.104001,10.4439998 36.912,10.492 C36.719999,10.5400002 36.5000012,10.5759999 36.252,10.6 C36.0039988,10.6240001 35.7520013,10.6559998 35.496,10.696 C35.2399987,10.7360002 34.9860013,10.7899997 34.734,10.858 C34.4819987,10.9260003 34.258001,11.0279993 34.062,11.164 C33.865999,11.3000007 33.7060006,11.4819989 33.582,11.71 C33.4579994,11.9380011 33.396,12.2279982 33.396,12.58 C33.396,12.9000016 33.4499995,13.1759988 33.558,13.408 C33.6660005,13.6400012 33.815999,13.8319992 34.008,13.984 C34.200001,14.1360008 34.4239987,14.2479996 34.68,14.32 C34.9360013,14.3920004 35.2119985,14.428 35.508,14.428 C35.8920019,14.428 36.2679982,14.3720006 36.636,14.26 C37.0040018,14.1479994 37.3239986,13.9520014 37.596,13.672 C37.604,13.7760005 37.6179999,13.8779995 37.638,13.978 C37.6580001,14.0780005 37.6839998,14.1759995 37.716,14.272 L39.444,14.272 C39.3639996,14.1439994 39.3080002,13.9520013 39.276,13.696 C39.2439998,13.4399987 39.228,13.1720014 39.228,12.892 L39.228,9.664 C39.228,9.28799812 39.1440008,8.98600114 38.976,8.758 C38.8079992,8.52999886 38.5920013,8.35200064 38.328,8.224 C38.0639987,8.09599936 37.7720016,8.01000022 37.452,7.966 C37.1319984,7.92199978 36.8160016,7.9 36.504,7.9 C36.1599983,7.9 35.8180017,7.93399966 35.478,8.002 C35.1379983,8.07000034 34.8320014,8.1839992 34.56,8.344 C34.2879986,8.5040008 34.0640009,8.71599868 33.888,8.98 C33.7119991,9.24400132 33.6120001,9.575998 33.588,9.976 Z M37.524,11.236 L37.524,11.872 C37.524,11.9680005 37.5140001,12.0959992 37.494,12.256 C37.4739999,12.4160008 37.4200004,12.5739992 37.332,12.73 C37.2439996,12.8860008 37.1080009,13.0199994 36.924,13.132 C36.7399991,13.2440006 36.4800017,13.3 36.144,13.3 C36.0079993,13.3 35.8760006,13.2880001 35.748,13.264 C35.6199994,13.2399999 35.5080005,13.1980003 35.412,13.138 C35.3159995,13.0779997 35.2400003,12.9960005 35.184,12.892 C35.1279997,12.7879995 35.1,12.6600008 35.1,12.508 C35.1,12.3479992 35.1279997,12.2160005 35.184,12.112 C35.2400003,12.0079995 35.3139995,11.9220003 35.406,11.854 C35.4980005,11.7859997 35.6059994,11.7320002 35.73,11.692 C35.8540006,11.6519998 35.9799994,11.6200001 36.108,11.596 C36.2440007,11.5719999 36.3799993,11.5520001 36.516,11.536 C36.6520007,11.5199999 36.7819994,11.5000001 36.906,11.476 C37.0300006,11.4519999 37.1459995,11.4220002 37.254,11.386 C37.3620005,11.3499998 37.4519996,11.3000003 37.524,11.236 Z M40.548,8.068 L40.548,14.272 L42.252,14.272 L42.252,11.476 C42.252,11.1959986 42.2799997,10.9360012 42.336,10.696 C42.3920003,10.4559988 42.4859993,10.2460009 42.618,10.066 C42.7500007,9.8859991 42.9239989,9.74400052 43.14,9.64 C43.3560011,9.53599948 43.6199984,9.484 43.932,9.484 C44.0360005,9.484 44.1439994,9.48999994 44.256,9.502 C44.3680006,9.51400006 44.4639996,9.52799992 44.544,9.544 L44.544,7.96 C44.4079993,7.9199998 44.2840006,7.9 44.172,7.9 C43.9559989,7.9 43.748001,7.93199968 43.548,7.996 C43.347999,8.06000032 43.1600009,8.14999942 42.984,8.266 C42.8079991,8.38200058 42.6520007,8.52199918 42.516,8.686 C42.3799993,8.85000082 42.2720004,9.02799904 42.192,9.22 L42.168,9.22 L42.168,8.068 L40.548,8.068 Z" id="Star" fill="#3D3D3D" sketch:type="MSShapeGroup"></path>
        </g>
    </g>
</svg>