<?xml version="1.0" standalone="no"?><!-- Generator: Adobe Fireworks CS6, Export SVG Extension by Aaron Beall (http://fireworks.abeall.com) . Version: 0.6.1  --><!DOCTYPE svg PUBLIC "-//W3C//DTD SVG 1.1//EN" "http://www.w3.org/Graphics/SVG/1.1/DTD/svg11.dtd"><svg id="Untitled-Page%201" viewBox="0 0 14 14" style="background-color:#ffffff00" version="1.1"	xmlns="http://www.w3.org/2000/svg" xmlns:xlink="http://www.w3.org/1999/xlink" xml:space="preserve"	x="0px" y="0px" width="14px" height="14px">	<path d="M 0 7 C 0 10.866 3.1341 14 7 14 C 10.8659 14 14 10.866 14 7 C 14 3.134 10.8659 0 7 0 C 3.1341 0 0 3.134 0 7 Z" fill="#999999"/>	<path d="M 7.6789 8.5957 L 6.2245 8.5957 C 6.2207 8.4077 6.2186 8.4314 6.2186 8.3904 C 6.2186 7.9666 6.2964 7.5365 6.4526 7.2631 C 6.6082 6.9898 6.9201 6.6826 7.388 6.3408 C 7.8555 5.999 8.135 5.7753 8.2263 5.6696 C 8.3669 5.5023 8.4372 5.3177 8.4372 5.1161 C 8.4372 4.836 8.3125 4.5961 8.0639 4.3961 C 7.8145 4.1964 7.4792 4.0964 7.0569 4.0964 C 6.6501 4.0964 6.3098 4.2006 6.0361 4.4089 C 5.7624 4.6176 5.5741 4.9353 5.4715 5.362 L 4 5.1981 C 4.0418 4.5867 4.3319 3.9675 4.8697 3.5403 C 5.4079 3.1136 6.114 2.8 6.9887 2.8 C 7.9086 2.8 8.6406 3.1162 9.1843 3.5482 C 9.728 3.9803 10 4.5833 10 5.1571 C 10 5.4748 9.9004 5.7753 9.7007 6.0588 C 9.5011 6.3427 9.0742 6.7284 8.4201 7.2169 C 8.0819 7.4699 7.8718 7.673 7.7898 7.8267 C 7.7082 7.9805 7.6713 8.1994 7.6789 8.5957 ZM 6.2245 11 L 6.2245 9.4599 L 7.827 9.4599 L 7.827 11 L 6.2245 11 Z" fill="#ffffff"/></svg>