<?xml version="1.0" standalone="no"?><!-- Generator: Adobe Fireworks CS6, Export SVG Extension by Aaron Beall (http://fireworks.abeall.com) . Version: 0.6.1  --><!DOCTYPE svg PUBLIC "-//W3C//DTD SVG 1.1//EN" "http://www.w3.org/Graphics/SVG/1.1/DTD/svg11.dtd"><svg id="Untitled-Page%201" viewBox="0 0 56 20" style="background-color:#ffffff00" version="1.1"	xmlns="http://www.w3.org/2000/svg" xmlns:xlink="http://www.w3.org/1999/xlink" xml:space="preserve"	x="0px" y="0px" width="56px" height="20px">	<defs>		<linearGradient id="gradient1" x1="50%" y1="0%" x2="50%" y2="100%">			<stop stop-color="#fefefe" stop-opacity="1" offset="0%"/>			<stop stop-color="#dfdfdf" stop-opacity="1" offset="100%"/>		</linearGradient>	</defs>	<rect id="Rectangle-53-copy-2" x="0" y="0" width="56" height="20" fill="#cccccc" rx="3" ry="3"/>	<rect id="Rectangle-53-copy" x="1" y="1" width="54" height="18" fill="url(#gradient1)" rx="2" ry="2"/>	<path id="Tweet-2" d="M 47.3125 10.2896 L 47.3125 9.1992 L 48.1289 9.1992 L 48.1289 7.5664 L 49.6436 7.5664 L 49.6436 9.1992 L 50.5942 9.1992 L 50.5942 10.2896 L 49.6436 10.2896 L 49.6436 13.3833 C 49.6436 13.6232 49.6741 13.7727 49.7349 13.8318 C 49.7957 13.8909 49.9819 13.9204 50.2935 13.9204 C 50.3401 13.9204 50.3892 13.9195 50.4412 13.9177 C 50.4932 13.916 50.5442 13.9133 50.5942 13.9097 L 50.5942 15.0537 L 49.8691 15.0806 C 49.1458 15.1057 48.6517 14.9803 48.3867 14.7046 C 48.2148 14.5291 48.1289 14.2588 48.1289 13.8936 L 48.1289 10.2896 L 47.3125 10.2896 L 47.3125 10.2896 ZM 43.2815 10.585 C 43.0863 10.807 42.9636 11.1077 42.9136 11.4873 L 45.293 11.4873 C 45.2678 11.0827 45.1453 10.7756 44.925 10.5662 C 44.7048 10.3567 44.4319 10.252 44.106 10.252 C 43.7515 10.252 43.4767 10.3629 43.2815 10.585 L 43.2815 10.585 ZM 45.4219 9.2637 C 45.8123 9.4463 46.1344 9.7345 46.3887 10.1284 C 46.6179 10.4758 46.7664 10.8786 46.8345 11.3369 C 46.8738 11.6055 46.8899 11.9922 46.8828 12.4971 L 42.876 12.4971 C 42.8975 13.0843 43.0818 13.4961 43.4292 13.7324 C 43.6405 13.8792 43.8947 13.9526 44.1919 13.9526 C 44.5071 13.9526 44.7629 13.8631 44.96 13.6841 C 45.0674 13.5874 45.1624 13.4531 45.2446 13.2813 L 46.8076 13.2813 C 46.7683 13.6286 46.5874 13.9813 46.2651 14.3394 C 45.7638 14.9087 45.062 15.1934 44.1597 15.1934 C 43.4148 15.1934 42.7578 14.9535 42.1885 14.4736 C 41.6191 13.9938 41.3345 13.2132 41.3345 12.1318 C 41.3345 11.1185 41.5913 10.3415 42.1052 9.8008 C 42.6191 9.2601 43.2859 8.9897 44.106 8.9897 C 44.593 8.9897 45.0315 9.0811 45.4219 9.2637 L 45.4219 9.2637 ZM 37.1638 10.585 C 36.9686 10.807 36.8459 11.1077 36.7959 11.4873 L 39.1753 11.4873 C 39.1501 11.0827 39.0276 10.7756 38.8074 10.5662 C 38.5872 10.3567 38.3142 10.252 37.9883 10.252 C 37.6338 10.252 37.359 10.3629 37.1638 10.585 L 37.1638 10.585 ZM 39.3042 9.2637 C 39.6946 9.4463 40.0167 9.7345 40.271 10.1284 C 40.5002 10.4758 40.6487 10.8786 40.7168 11.3369 C 40.7561 11.6055 40.7722 11.9922 40.7651 12.4971 L 36.7583 12.4971 C 36.7798 13.0843 36.9641 13.4961 37.3115 13.7324 C 37.5228 13.8792 37.777 13.9526 38.0742 13.9526 C 38.3894 13.9526 38.6453 13.8631 38.8423 13.6841 C 38.9497 13.5874 39.0447 13.4531 39.127 13.2813 L 40.6899 13.2813 C 40.6506 13.6286 40.4697 13.9813 40.1475 14.3394 C 39.6461 14.9087 38.9443 15.1934 38.042 15.1934 C 37.2971 15.1934 36.6401 14.9535 36.0708 14.4736 C 35.5015 13.9938 35.2168 13.2132 35.2168 12.1318 C 35.2168 11.1185 35.4736 10.3415 35.9875 9.8008 C 36.5015 9.2601 37.1682 8.9897 37.9883 8.9897 C 38.4753 8.9897 38.9138 9.0811 39.3042 9.2637 L 39.3042 9.2637 ZM 29.8833 9.1455 L 31.4355 9.1455 L 32.3271 13.3618 L 33.2402 9.1455 L 34.8354 9.1455 L 33.1382 15 L 31.5645 15 L 30.646 10.7354 L 29.7168 15 L 28.127 15 L 26.4834 9.1455 L 28.127 9.1455 L 29.04 13.3457 L 29.8833 9.1455 L 29.8833 9.1455 ZM 27.0903 7.083 L 27.0903 8.4849 L 24.7217 8.4849 L 24.7217 15 L 23.0566 15 L 23.0566 8.4849 L 20.6772 8.4849 L 20.6772 7.083 L 27.0903 7.083 L 27.0903 7.083 Z" fill="#ffffff"/>	<path id="Tweet" d="M 47.3125 9.2896 L 47.3125 8.1992 L 48.1289 8.1992 L 48.1289 6.5664 L 49.6436 6.5664 L 49.6436 8.1992 L 50.5942 8.1992 L 50.5942 9.2896 L 49.6436 9.2896 L 49.6436 12.3833 C 49.6436 12.6232 49.6741 12.7727 49.7349 12.8318 C 49.7957 12.8909 49.9819 12.9204 50.2935 12.9204 C 50.3401 12.9204 50.3892 12.9195 50.4412 12.9177 C 50.4932 12.916 50.5442 12.9133 50.5942 12.9097 L 50.5942 14.0537 L 49.8691 14.0806 C 49.1458 14.1057 48.6517 13.9803 48.3867 13.7046 C 48.2148 13.5291 48.1289 13.2588 48.1289 12.8936 L 48.1289 9.2896 L 47.3125 9.2896 L 47.3125 9.2896 ZM 43.2815 9.585 C 43.0863 9.807 42.9636 10.1077 42.9136 10.4873 L 45.293 10.4873 C 45.2678 10.0827 45.1453 9.7756 44.925 9.5662 C 44.7048 9.3567 44.4319 9.252 44.106 9.252 C 43.7515 9.252 43.4767 9.3629 43.2815 9.585 L 43.2815 9.585 ZM 45.4219 8.2637 C 45.8123 8.4463 46.1344 8.7345 46.3887 9.1284 C 46.6179 9.4758 46.7664 9.8786 46.8345 10.3369 C 46.8738 10.6055 46.8899 10.9922 46.8828 11.4971 L 42.876 11.4971 C 42.8975 12.0843 43.0818 12.4961 43.4292 12.7324 C 43.6405 12.8792 43.8947 12.9526 44.1919 12.9526 C 44.5071 12.9526 44.7629 12.8631 44.96 12.6841 C 45.0674 12.5874 45.1624 12.4531 45.2446 12.2813 L 46.8076 12.2813 C 46.7683 12.6286 46.5874 12.9813 46.2651 13.3394 C 45.7638 13.9087 45.062 14.1934 44.1597 14.1934 C 43.4148 14.1934 42.7578 13.9535 42.1885 13.4736 C 41.6191 12.9938 41.3345 12.2132 41.3345 11.1318 C 41.3345 10.1185 41.5913 9.3415 42.1052 8.8008 C 42.6191 8.2601 43.2859 7.9897 44.106 7.9897 C 44.593 7.9897 45.0315 8.0811 45.4219 8.2637 L 45.4219 8.2637 ZM 37.1638 9.585 C 36.9686 9.807 36.8459 10.1077 36.7959 10.4873 L 39.1753 10.4873 C 39.1501 10.0827 39.0276 9.7756 38.8074 9.5662 C 38.5872 9.3567 38.3142 9.252 37.9883 9.252 C 37.6338 9.252 37.359 9.3629 37.1638 9.585 L 37.1638 9.585 ZM 39.3042 8.2637 C 39.6946 8.4463 40.0167 8.7345 40.271 9.1284 C 40.5002 9.4758 40.6487 9.8786 40.7168 10.3369 C 40.7561 10.6055 40.7722 10.9922 40.7651 11.4971 L 36.7583 11.4971 C 36.7798 12.0843 36.9641 12.4961 37.3115 12.7324 C 37.5228 12.8792 37.777 12.9526 38.0742 12.9526 C 38.3894 12.9526 38.6453 12.8631 38.8423 12.6841 C 38.9497 12.5874 39.0447 12.4531 39.127 12.2813 L 40.6899 12.2813 C 40.6506 12.6286 40.4697 12.9813 40.1475 13.3394 C 39.6461 13.9087 38.9443 14.1934 38.042 14.1934 C 37.2971 14.1934 36.6401 13.9535 36.0708 13.4736 C 35.5015 12.9938 35.2168 12.2132 35.2168 11.1318 C 35.2168 10.1185 35.4736 9.3415 35.9875 8.8008 C 36.5015 8.2601 37.1682 7.9897 37.9883 7.9897 C 38.4753 7.9897 38.9138 8.0811 39.3042 8.2637 L 39.3042 8.2637 ZM 29.8833 8.1455 L 31.4355 8.1455 L 32.3271 12.3618 L 33.2402 8.1455 L 34.8354 8.1455 L 33.1382 14 L 31.5645 14 L 30.646 9.7354 L 29.7168 14 L 28.127 14 L 26.4834 8.1455 L 28.127 8.1455 L 29.04 12.3457 L 29.8833 8.1455 L 29.8833 8.1455 ZM 27.0903 6.083 L 27.0903 7.4849 L 24.7217 7.4849 L 24.7217 14 L 23.0566 14 L 23.0566 7.4849 L 20.6772 7.4849 L 20.6772 6.083 L 27.0903 6.083 L 27.0903 6.083 Z" fill="#333333"/>	<path id="Oval-21-copy" opacity="0.4" d="M 13.3453 7 C 14.1509 7 14.8083 7.2836 15.2749 7.7696 C 15.7651 7.6541 16.4382 7.4515 16.9639 7.1282 C 16.9016 7.6048 16.6658 8.3029 15.8257 8.5535 C 15.8285 8.5656 15.8313 8.5777 15.834 8.5898 C 16.2759 8.4962 16.8953 8.3273 17.299 8.0898 C 17.9167 7.745 16.913 8.9136 15.9587 9.5029 L 15.9587 9.7564 L 15.9587 9.9487 C 15.9587 13.859 12.6753 17 8.5876 17 C 7.0464 17 5.6392 16.5513 4.5 15.8462 C 6.0413 16.2308 7.9845 15.2051 8.3196 14.8846 C 6.3762 14.7564 5.9072 13.0898 5.9072 13.0898 C 5.9072 13.0898 6.8453 13.218 6.9794 12.9615 C 4.9021 12.5769 4.969 10.5256 4.969 10.5256 C 4.969 10.5256 5.7062 10.9102 5.9742 10.718 C 4.2319 9.1154 5.3042 7.3846 5.3711 7.3205 C 6.5103 8.9872 8.4244 9.7379 10.799 10.0769 C 10.7838 9.8618 10.7319 9.6923 10.7319 9.5 C 10.7319 8.0898 11.8711 7 13.3453 7 L 13.3453 7 Z" fill="#ffffff"/>	<path id="Oval-21-copy2" d="M 13.3453 6 C 14.1509 6 14.8083 6.2836 15.2749 6.7696 C 15.7651 6.6541 16.4382 6.4515 16.9639 6.1282 C 16.9016 6.6048 16.6658 7.3029 15.8257 7.5535 C 15.8285 7.5656 15.8313 7.5777 15.834 7.5898 C 16.2759 7.4962 16.8953 7.3273 17.299 7.0898 C 17.9167 6.745 16.913 7.9136 15.9587 8.5029 L 15.9587 8.7564 L 15.9587 8.9487 C 15.9587 12.859 12.6753 16 8.5876 16 C 7.0464 16 5.6392 15.5513 4.5 14.8462 C 6.0413 15.2308 7.9845 14.2051 8.3196 13.8846 C 6.3762 13.7564 5.9072 12.0898 5.9072 12.0898 C 5.9072 12.0898 6.8453 12.218 6.9794 11.9615 C 4.9021 11.5769 4.969 9.5256 4.969 9.5256 C 4.969 9.5256 5.7062 9.9102 5.9742 9.718 C 4.2319 8.1154 5.3042 6.3846 5.3711 6.3205 C 6.5103 7.9872 8.4244 8.7379 10.799 9.0769 C 10.7838 8.8618 10.7319 8.6923 10.7319 8.5 C 10.7319 7.0898 11.8711 6 13.3453 6 L 13.3453 6 Z" fill="#00acee"/>	<path d="M 10.7319 9.5 C 10.7319 9.3546 10.7461 9.2134 10.77 9.075 C 8.4093 8.7339 6.5055 7.9802 5.3711 6.3205 C 5.326 6.3636 4.8264 7.1593 5.0349 8.165 C 5.1333 7.6736 5.3427 7.3477 5.3711 7.3205 C 6.5103 8.9872 8.4244 9.7379 10.799 10.0769 C 10.7838 9.8618 10.7319 9.6923 10.7319 9.5 ZM 17.299 7.0898 C 17.1926 7.1523 17.0691 7.2119 16.9399 7.265 C 16.8943 7.5041 16.8041 7.7747 16.62 8.015 C 17.2963 7.4447 17.7712 6.8263 17.299 7.0898 ZM 10.7319 8.5 C 10.7319 8.6585 10.7692 8.7992 10.79 8.965 C 11.0361 7.8222 12.063 7 13.3453 7 C 14.1509 7 14.8083 7.2836 15.2749 7.7696 C 15.5186 7.7122 15.8065 7.6346 16.1 7.53 L 15.834 7.5898 L 15.8257 7.5535 C 16.6658 7.3029 16.9016 6.6048 16.9639 6.1282 C 16.4382 6.4515 15.7651 6.6541 15.2749 6.7696 C 14.8083 6.2836 14.1509 6 13.3453 6 C 11.8711 6 10.7319 7.0898 10.7319 8.5 ZM 15.96 8.56 L 15.9587 8.5029 L 15.8257 8.5535 L 15.834 8.5898 L 15.96 8.56 ZM 7.105 14.54 C 6.344 14.8359 5.3597 15.0607 4.5 14.8462 C 5.1113 15.2245 5.8 15.529 6.5449 15.73 C 7.4116 15.481 8.1282 15.0678 8.3196 14.8846 C 7.825 14.852 7.4252 14.7191 7.105 14.54 ZM 6.21 12.7 C 6.2981 12.8326 6.407 12.9769 6.5449 13.115 C 6.7432 13.1024 6.926 13.0636 6.9794 12.9615 C 6.6798 12.9061 6.427 12.8136 6.21 12.7 ZM 5.175 9.62 L 4.969 9.5256 C 4.969 9.5256 4.9504 10.0604 5.21 10.635 C 5.4496 10.7313 5.8054 10.8391 5.9742 10.718 C 5.5764 10.352 5.3247 9.9784 5.175 9.62 Z" fill="#0091c9"/></svg>