<?xml version="1.0" encoding="utf-8"?>
<!-- Generator: Adobe Illustrator 15.0.0, SVG Export Plug-In  -->
<!DOCTYPE svg PUBLIC "-//W3C//DTD SVG 1.1//EN" "http://www.w3.org/Graphics/SVG/1.1/DTD/svg11.dtd" [
	<!ENTITY ns_flows "http://ns.adobe.com/Flows/1.0/">
]>
<svg version="1.1"
	 xmlns="http://www.w3.org/2000/svg" xmlns:xlink="http://www.w3.org/1999/xlink" xmlns:a="http://ns.adobe.com/AdobeSVGViewerExtensions/3.0/"
	 x="0px" y="0px" width="1023px" height="13px" viewBox="-2.4 -2.1 1023 13"
	 overflow="visible" enable-background="new -2.4 -2.1 1023 13" xml:space="preserve">
<defs>
</defs>
<g>
	<path fill-rule="evenodd" clip-rule="evenodd" fill="#666666" d="M0,4.4C21,6.2,41,2.9,48.8,4.9s27.7-1,34.5,0s20-0.5,41.4-1.4
		s88.6,4.9,128.6,3.9s102.3-3.9,134.4-3.9s64.3,1,76,1.9s50.6,3.9,85.7,1.9s148.2-2.6,197.7-3.9c47.7-1.3,119.8,3.9,141.2,1.9
		s22.4,1.9,33.1,0s15.6-2.9,39.9-1.9s56.7-1.9,56.7-1.9"/>
	<path fill="#666666" d="M0,4.1c10.6,0.6,21.2,0,31.7-0.7c2.7-0.2,5.3-0.3,8-0.4c2.7-0.1,5.4-0.2,8.2,0.3c0.4,0.1,0.7,0.1,1.1,0.2
		l0.5,0.1L50,3.6c0.6,0.1,1.2,0.2,1.8,0.2C53.1,3.9,54.4,4,55.7,4c2.6,0,5.2-0.1,7.9-0.2c5.3-0.3,10.5-0.8,16-0.9
		c1.4,0,2.8,0,4.2,0.2c1.2,0.1,2.5,0.2,3.8,0.2c2.6,0,5.2-0.1,7.8-0.2c5.3-0.3,10.6-0.7,15.9-1.1c5.3-0.4,10.6-0.7,16-0.9
		c5.4-0.1,10.7,0,16,0.1c5.3,0.1,10.6,0.3,15.9,0.6l31.8,1.5c21.2,0.9,42.4,2,63.5,1.6C275.6,4.5,296.8,4,318,3.5l31.8-0.6
		c10.6-0.2,21.2-0.4,31.9-0.4c10.6-0.1,21.2,0.1,31.9,0.2c10.6,0.1,21.2,0.4,31.9,0.7c5.3,0.2,10.6,0.4,15.9,0.7
		c5.3,0.4,10.6,0.7,15.9,1c10.6,0.6,21.2,0.9,31.8,1.1c10.6,0.1,21.2,0,31.7-0.5c2.6-0.1,5.3-0.3,7.9-0.4c2.7-0.2,5.3-0.3,8-0.5
		c5.3-0.3,10.6-0.5,15.9-0.7c21.2-0.7,42.5-1.3,63.7-1.7L763.7,0c10.7,0,21.3,0.3,31.9,0.6c10.6,0.3,21.2,0.7,31.8,1.2
		c10.6,0.4,21.2,0.9,31.8,1.2c5.3,0.2,10.6,0.3,15.9,0.3c2.6,0,5.3,0,7.9-0.1c1.3,0,2.6-0.1,3.9-0.2l4-0.3
		c5.4-0.3,10.8-0.5,16.3,0.2c2.7,0.3,5.3,0.8,7.8,0.9c2.5,0.1,4.9-0.2,7.5-0.6c2.6-0.4,5.3-0.9,8-1.2c2.7-0.3,5.4-0.5,8.1-0.6
		c5.4-0.2,10.7,0,16,0.2l8,0.4c2.6,0.1,5.3,0.2,7.9,0.3c5.3,0.1,10.6,0.1,15.9,0.1c10.6-0.1,21.2-0.6,31.8-1.2l0.1,0.6
		c-10.6,1.1-21.2,2-31.8,2.5c-5.3,0.3-10.6,0.5-16,0.5C965,5,959.7,4.8,954.4,4.7c-5.3-0.1-10.6-0.1-15.8,0.2
		c-2.6,0.2-5.2,0.4-7.8,0.8c-2.6,0.4-5.1,0.9-7.7,1.4c-2.6,0.5-5.5,1-8.3,0.9c-2.9-0.1-5.5-0.5-8.1-0.7c-5.1-0.4-10.3-0.3-15.5,0.1
		l-4,0.4c-1.4,0.1-2.7,0.2-4.1,0.2c-2.7,0.1-5.4,0.2-8,0.2c-5.3,0.1-10.7,0-16-0.1c-10.6-0.2-21.3-0.4-31.9-0.7
		C806,7,784.8,6.3,763.7,6.4c-5.3,0-10.6,0.1-15.8,0.2L731.9,7c-10.6,0.2-21.2,0.4-31.9,0.5L636.4,8c-21.2,0.3-42.4,0.4-63.6,0.8
		c-5.3,0.1-10.6,0.2-15.9,0.4c-2.6,0.1-5.3,0.2-7.9,0.3c-2.7,0.1-5.3,0.2-8,0.2C530.3,10,519.6,9.8,509,9.4
		c-10.6-0.4-21.3-1-31.9-1.8c-5.3-0.4-10.6-0.9-15.9-1.3c-5.3-0.4-10.6-0.6-15.9-0.9c-21.2-0.9-42.4-1.2-63.6-1
		c-10.6,0.2-21.2,0.5-31.8,0.9l-31.8,1.5c-21.2,1-42.4,2.1-63.6,2.9c-10.7,0.3-21.3,0.3-32,0c-10.6-0.3-21.3-0.7-31.9-1.3l-31.8-1.7
		c-10.6-0.5-21.2-1.2-31.7-1.1c-5.2,0.1-10.5,0.4-15.8,0.6c-5.3,0.2-10.6,0.5-15.9,0.7c-2.7,0.1-5.4,0.1-8.1,0
		c-1.4,0-2.7-0.1-4.2-0.4c-1.2-0.2-2.4-0.2-3.7-0.3C74.3,6.4,69,6.8,63.7,7c-2.7,0.1-5.3,0.2-8.1,0.1c-1.4,0-2.7-0.1-4.1-0.3
		c-0.7-0.1-1.4-0.2-2.1-0.3l-0.6-0.1l-0.5-0.1c-0.3-0.1-0.6-0.1-0.9-0.2c-2.4-0.4-5.1-0.5-7.7-0.6c-2.6,0-5.3,0-7.9,0.1
		C21.3,5.8,10.6,6,0,4.7L0,4.1z"/>
</g>
</svg>
